<svg width="130" height="25" viewBox="0 0 130 25" fill="none" xmlns="http://www.w3.org/2000/svg">
<path d="M10.176 -7.15256e-07V9H9.78V0.576L5.532 9.168L1.308 0.468V9H0.912V-7.15256e-07H1.476L5.532 8.352L9.624 -7.15256e-07H10.176ZM16.4611 9.132C15.9491 9.132 15.4731 9.004 15.0331 8.748C14.5931 8.492 14.2451 8.148 13.9891 7.716C13.7331 7.276 13.6051 6.804 13.6051 6.3C13.6051 5.796 13.7331 5.328 13.9891 4.896C14.2451 4.456 14.5931 4.108 15.0331 3.852C15.4731 3.596 15.9491 3.468 16.4611 3.468C16.9811 3.468 17.4731 3.608 17.9371 3.888C18.4011 4.16 18.7251 4.516 18.9091 4.956V3.6H19.2931V9H18.9091V7.656C18.6931 8.104 18.3571 8.464 17.9011 8.736C17.4531 9 16.9731 9.132 16.4611 9.132ZM16.4851 8.796C16.9251 8.796 17.3331 8.684 17.7091 8.46C18.0851 8.228 18.3811 7.924 18.5971 7.548C18.8211 7.164 18.9331 6.748 18.9331 6.3C18.9331 5.86 18.8211 5.448 18.5971 5.064C18.3731 4.68 18.0731 4.376 17.6971 4.152C17.3211 3.92 16.9131 3.804 16.4731 3.804C16.0331 3.804 15.6211 3.92 15.2371 4.152C14.8611 4.384 14.5571 4.692 14.3251 5.076C14.1011 5.46 13.9891 5.872 13.9891 6.312C13.9891 6.752 14.1011 7.164 14.3251 7.548C14.5571 7.924 14.8651 8.228 15.2491 8.46C15.6331 8.684 16.0451 8.796 16.4851 8.796ZM22.8477 3.6H23.2317V4.848C23.3917 4.456 23.6237 4.148 23.9277 3.924C24.2397 3.7 24.5917 3.588 24.9837 3.588C25.2317 3.588 25.4837 3.64 25.7397 3.744V4.188C25.5077 4.012 25.2477 3.924 24.9597 3.924C24.6717 3.924 24.3917 4.012 24.1197 4.188C23.8557 4.364 23.6397 4.6 23.4717 4.896C23.3117 5.192 23.2317 5.508 23.2317 5.844V9H22.8477V3.6ZM30.7835 9.108C30.4075 9.108 30.0635 9.024 29.7515 8.856C29.4395 8.68 29.1915 8.436 29.0075 8.124C28.8235 7.812 28.7315 7.464 28.7315 7.08V-7.15256e-07H29.1155V7.08C29.1155 7.4 29.1875 7.688 29.3315 7.944C29.4835 8.2 29.6875 8.404 29.9435 8.556C30.1995 8.7 30.4795 8.772 30.7835 8.772V9.108ZM36.3292 8.808C36.7452 8.808 37.1412 8.7 37.5172 8.484C37.8932 8.268 38.2052 7.972 38.4532 7.596V8.208C38.1572 8.536 37.8332 8.776 37.4812 8.928C37.1292 9.072 36.7292 9.144 36.2812 9.144C35.7852 9.144 35.3172 9.012 34.8772 8.748C34.4452 8.484 34.0972 8.132 33.8332 7.692C33.5772 7.252 33.4492 6.784 33.4492 6.288C33.4492 5.752 33.5772 5.272 33.8332 4.848C34.0892 4.416 34.4372 4.08 34.8772 3.84C35.3252 3.6 35.8212 3.48 36.3652 3.48C37.1972 3.48 37.9052 3.808 38.4892 4.464L34.7212 8.184C34.9852 8.4 35.2412 8.56 35.4892 8.664C35.7372 8.76 36.0172 8.808 36.3292 8.808ZM33.8332 6.252C33.8332 6.916 34.0532 7.484 34.4932 7.956L38.0092 4.464C37.7452 4.232 37.4892 4.068 37.2412 3.972C36.9932 3.868 36.6972 3.816 36.3532 3.816C35.8652 3.816 35.4292 3.924 35.0452 4.14C34.6692 4.348 34.3732 4.636 34.1572 5.004C33.9412 5.372 33.8332 5.788 33.8332 6.252ZM41.7294 3.6H42.1134V4.8C42.2894 4.4 42.5894 4.08 43.0134 3.84C43.4374 3.592 43.9054 3.468 44.4174 3.468C45.0814 3.468 45.6054 3.68 45.9894 4.104C46.3814 4.52 46.5774 5.104 46.5774 5.856V9H46.1934V5.856C46.1934 5.208 46.0334 4.704 45.7134 4.344C45.4014 3.984 44.9614 3.804 44.3934 3.804C43.9774 3.804 43.5934 3.9 43.2414 4.092C42.8974 4.276 42.6214 4.532 42.4134 4.86C42.2134 5.188 42.1134 5.56 42.1134 5.976V9H41.7294V3.6ZM52.6767 9.132C52.1647 9.132 51.6887 9.004 51.2487 8.748C50.8087 8.492 50.4607 8.148 50.2047 7.716C49.9487 7.276 49.8207 6.804 49.8207 6.3C49.8207 5.796 49.9487 5.328 50.2047 4.896C50.4607 4.456 50.8087 4.108 51.2487 3.852C51.6887 3.596 52.1647 3.468 52.6767 3.468C53.1967 3.468 53.6887 3.608 54.1527 3.888C54.6167 4.16 54.9407 4.516 55.1247 4.956V3.6H55.5087V9H55.1247V7.656C54.9087 8.104 54.5727 8.464 54.1167 8.736C53.6687 9 53.1887 9.132 52.6767 9.132ZM52.7007 8.796C53.1407 8.796 53.5487 8.684 53.9247 8.46C54.3007 8.228 54.5967 7.924 54.8127 7.548C55.0367 7.164 55.1487 6.748 55.1487 6.3C55.1487 5.86 55.0367 5.448 54.8127 5.064C54.5887 4.68 54.2887 4.376 53.9127 4.152C53.5367 3.92 53.1287 3.804 52.6887 3.804C52.2487 3.804 51.8367 3.92 51.4527 4.152C51.0767 4.384 50.7727 4.692 50.5407 5.076C50.3167 5.46 50.2047 5.872 50.2047 6.312C50.2047 6.752 50.3167 7.164 50.5407 7.548C50.7727 7.924 51.0807 8.228 51.4647 8.46C51.8487 8.684 52.2607 8.796 52.7007 8.796ZM73.1601 -7.15256e-07V9H72.7641V0.576L68.5161 9.168L64.2921 0.468V9H63.8961V-7.15256e-07H64.4601L68.5161 8.352L72.6081 -7.15256e-07H73.1601ZM77.3692 2.364C77.2572 2.364 77.1572 2.324 77.0692 2.244C76.9892 2.164 76.9492 2.064 76.9492 1.944C76.9492 1.832 76.9892 1.736 77.0692 1.656C77.1572 1.576 77.2572 1.536 77.3692 1.536C77.4812 1.536 77.5772 1.576 77.6572 1.656C77.7452 1.736 77.7892 1.832 77.7892 1.944C77.7892 2.064 77.7452 2.164 77.6572 2.244C77.5772 2.324 77.4812 2.364 77.3692 2.364ZM77.1772 3.6H77.5612V9H77.1772V3.6ZM83.9344 9.156C83.4144 9.156 82.9344 9.032 82.4944 8.784C82.0624 8.536 81.7184 8.196 81.4624 7.764C81.2064 7.332 81.0784 6.844 81.0784 6.3C81.0784 5.796 81.2064 5.332 81.4624 4.908C81.7184 4.476 82.0664 4.132 82.5064 3.876C82.9544 3.62 83.4464 3.492 83.9824 3.492C84.4304 3.492 84.8144 3.564 85.1344 3.708C85.4544 3.852 85.7664 4.076 86.0704 4.38V5.028C85.8064 4.636 85.5104 4.34 85.1824 4.14C84.8624 3.932 84.4624 3.828 83.9824 3.828C83.5424 3.828 83.1264 3.944 82.7344 4.176C82.3504 4.4 82.0424 4.704 81.8104 5.088C81.5784 5.472 81.4624 5.884 81.4624 6.324C81.4624 6.804 81.5744 7.236 81.7984 7.62C82.0224 7.996 82.3224 8.292 82.6984 8.508C83.0824 8.716 83.4944 8.82 83.9344 8.82C84.8304 8.82 85.5424 8.416 86.0704 7.608V8.256C85.7824 8.56 85.4624 8.788 85.1104 8.94C84.7664 9.084 84.3744 9.156 83.9344 9.156ZM89.1726 -7.15256e-07H89.5566V4.716C89.7246 4.356 90.0086 4.06 90.4086 3.828C90.8166 3.588 91.2286 3.468 91.6446 3.468C92.4046 3.468 92.9886 3.676 93.3966 4.092C93.8126 4.508 94.0206 5.096 94.0206 5.856V9H93.6366V5.856C93.6366 5.2 93.4606 4.696 93.1086 4.344C92.7646 3.984 92.2766 3.804 91.6446 3.804C91.2606 3.804 90.9086 3.896 90.5886 4.08C90.2686 4.256 90.0166 4.504 89.8326 4.824C89.6486 5.136 89.5566 5.48 89.5566 5.856V9H89.1726V-7.15256e-07ZM100.12 9.132C99.6078 9.132 99.1318 9.004 98.6918 8.748C98.2518 8.492 97.9038 8.148 97.6478 7.716C97.3918 7.276 97.2638 6.804 97.2638 6.3C97.2638 5.796 97.3918 5.328 97.6478 4.896C97.9038 4.456 98.2518 4.108 98.6918 3.852C99.1318 3.596 99.6078 3.468 100.12 3.468C100.64 3.468 101.132 3.608 101.596 3.888C102.06 4.16 102.384 4.516 102.568 4.956V3.6H102.952V9H102.568V7.656C102.352 8.104 102.016 8.464 101.56 8.736C101.112 9 100.632 9.132 100.12 9.132ZM100.144 8.796C100.584 8.796 100.992 8.684 101.368 8.46C101.744 8.228 102.04 7.924 102.256 7.548C102.48 7.164 102.592 6.748 102.592 6.3C102.592 5.86 102.48 5.448 102.256 5.064C102.032 4.68 101.732 4.376 101.356 4.152C100.98 3.92 100.572 3.804 100.132 3.804C99.6918 3.804 99.2798 3.92 98.8958 4.152C98.5198 4.384 98.2158 4.692 97.9838 5.076C97.7598 5.46 97.6478 5.872 97.6478 6.312C97.6478 6.752 97.7598 7.164 97.9838 7.548C98.2158 7.924 98.5238 8.228 98.9078 8.46C99.2918 8.684 99.7038 8.796 100.144 8.796ZM108.558 9.108C108.182 9.108 107.838 9.024 107.526 8.856C107.214 8.68 106.966 8.436 106.782 8.124C106.598 7.812 106.506 7.464 106.506 7.08V-7.15256e-07H106.89V7.08C106.89 7.4 106.962 7.688 107.106 7.944C107.258 8.2 107.462 8.404 107.718 8.556C107.974 8.7 108.254 8.772 108.558 8.772V9.108ZM113.147 9.132C112.763 9.132 112.423 9.068 112.127 8.94C111.831 8.804 111.619 8.632 111.491 8.424V7.788C111.643 8.132 111.851 8.388 112.115 8.556C112.379 8.716 112.715 8.796 113.123 8.796C113.515 8.796 113.831 8.676 114.071 8.436C114.311 8.188 114.431 7.872 114.431 7.488C114.431 7.16 114.363 6.908 114.227 6.732C114.091 6.548 113.871 6.364 113.567 6.18L113.111 5.916C112.783 5.716 112.535 5.56 112.367 5.448C112.207 5.328 112.079 5.196 111.983 5.052C111.887 4.9 111.839 4.724 111.839 4.524C111.839 4.204 111.951 3.948 112.175 3.756C112.399 3.564 112.691 3.468 113.051 3.468C113.491 3.468 113.859 3.568 114.155 3.768V4.296C113.907 3.968 113.551 3.804 113.087 3.804C112.831 3.804 112.623 3.868 112.463 3.996C112.303 4.124 112.223 4.288 112.223 4.488C112.223 4.664 112.271 4.82 112.367 4.956C112.463 5.084 112.595 5.204 112.763 5.316C112.939 5.428 113.227 5.596 113.627 5.82C114.035 6.052 114.335 6.292 114.527 6.54C114.719 6.78 114.815 7.096 114.815 7.488C114.815 7.984 114.651 8.384 114.323 8.688C114.003 8.984 113.611 9.132 113.147 9.132ZM118.051 0.0239997H118.435V5.472L120.571 3.6H121.063L118.591 5.76L121.687 9H121.171L118.435 6.12V9H118.051V0.0239997ZM126.784 9.132C126.272 9.132 125.796 9.004 125.356 8.748C124.916 8.492 124.568 8.148 124.312 7.716C124.056 7.276 123.928 6.804 123.928 6.3C123.928 5.796 124.056 5.328 124.312 4.896C124.568 4.456 124.916 4.108 125.356 3.852C125.796 3.596 126.272 3.468 126.784 3.468C127.304 3.468 127.796 3.608 128.26 3.888C128.724 4.16 129.048 4.516 129.232 4.956V3.6H129.616V9H129.232V7.656C129.016 8.104 128.68 8.464 128.224 8.736C127.776 9 127.296 9.132 126.784 9.132ZM126.808 8.796C127.248 8.796 127.656 8.684 128.032 8.46C128.408 8.228 128.704 7.924 128.92 7.548C129.144 7.164 129.256 6.748 129.256 6.3C129.256 5.86 129.144 5.448 128.92 5.064C128.696 4.68 128.396 4.376 128.02 4.152C127.644 3.92 127.236 3.804 126.796 3.804C126.356 3.804 125.944 3.92 125.56 4.152C125.184 4.384 124.88 4.692 124.648 5.076C124.424 5.46 124.312 5.872 124.312 6.312C124.312 6.752 124.424 7.164 124.648 7.548C124.88 7.924 125.188 8.228 125.572 8.46C125.956 8.684 126.368 8.796 126.808 8.796ZM0.858 13.75H1.221C2.08633 13.75 2.761 13.981 3.245 14.443C3.729 14.8977 3.971 15.51 3.971 16.28C3.971 16.8153 3.85367 17.292 3.619 17.71C3.38433 18.1207 3.06533 18.4397 2.662 18.667C2.25867 18.887 1.80767 18.997 1.309 18.997H1.221V22H0.858V13.75ZM1.331 18.678C1.99833 18.678 2.54467 18.4727 2.97 18.062C3.39533 17.644 3.608 17.0573 3.608 16.302C3.608 15.5833 3.40633 15.0333 3.003 14.652C2.607 14.2633 2.04233 14.069 1.309 14.069H1.221V18.678H1.331ZM5.83533 13.75H6.30833C7.16633 13.75 7.82633 13.9773 8.28833 14.432C8.75766 14.8867 8.99233 15.5357 8.99233 16.379C8.99233 16.863 8.875 17.3067 8.64033 17.71C8.41299 18.1133 8.10133 18.4323 7.70533 18.667C7.30933 18.8943 6.87299 19.008 6.39633 19.008H6.31933L9.15733 22H8.68433L6.18733 19.382V22H5.83533V13.75ZM6.38533 18.689C6.80333 18.689 7.18466 18.5863 7.52933 18.381C7.87399 18.1757 8.14533 17.9007 8.34333 17.556C8.54133 17.204 8.64033 16.8153 8.64033 16.39C8.64033 15.6493 8.43866 15.0773 8.03533 14.674C7.63933 14.2707 7.07099 14.069 6.33033 14.069H6.18733V18.689H6.38533ZM14.9223 22.22C14.1523 22.22 13.4373 22.0183 12.7773 21.615C12.1173 21.2117 11.5929 20.6763 11.2043 20.009C10.8229 19.3343 10.6323 18.612 10.6323 17.842C10.6323 17.0793 10.8266 16.368 11.2153 15.708C11.6039 15.0407 12.1283 14.5127 12.7883 14.124C13.4483 13.728 14.1633 13.53 14.9333 13.53C15.7106 13.53 16.4256 13.7243 17.0783 14.113C17.7309 14.5017 18.2479 15.0297 18.6293 15.697C19.0179 16.357 19.2123 17.072 19.2123 17.842C19.2123 18.634 19.0179 19.3673 18.6293 20.042C18.2479 20.7093 17.7273 21.241 17.0673 21.637C16.4146 22.0257 15.6996 22.22 14.9223 22.22ZM14.9223 21.901C15.6263 21.901 16.2789 21.7213 16.8803 21.362C17.4816 20.9953 17.9583 20.504 18.3103 19.888C18.6696 19.2647 18.8493 18.59 18.8493 17.864C18.8493 17.1453 18.6733 16.478 18.3213 15.862C17.9693 15.246 17.4926 14.7583 16.8913 14.399C16.2899 14.0323 15.6373 13.849 14.9333 13.849C14.2219 13.849 13.5656 14.0323 12.9643 14.399C12.3629 14.7583 11.8826 15.246 11.5233 15.862C11.1713 16.478 10.9953 17.1453 10.9953 17.864C10.9953 18.59 11.1713 19.2647 11.5233 19.888C11.8826 20.504 12.3629 20.9953 12.9643 21.362C13.5656 21.7213 14.2183 21.901 14.9223 21.901ZM22.2705 22.165C21.9405 22.165 21.6362 22.1137 21.3575 22.011C21.0862 21.9157 20.8222 21.758 20.5655 21.538V21.087C21.0275 21.593 21.6032 21.846 22.2925 21.846C22.9232 21.846 23.4145 21.6517 23.7665 21.263C24.1185 20.867 24.2945 20.284 24.2945 19.514V14.069H22.2595V13.75H24.6575V19.47C24.6575 20.35 24.4449 21.021 24.0195 21.483C23.5942 21.9377 23.0112 22.165 22.2705 22.165ZM26.997 13.75H29.956V14.069H27.36V18.557H29.527V18.876H27.36V21.681H29.956V22H26.997V13.75ZM36.4463 22L32.0793 17.413V22H31.7163V13.75H32.0793V16.742L35.5223 13.75H36.0393L32.1783 17.05L36.9303 22H36.4463ZM39.1615 14.069H37.2585V13.75H41.4055V14.069H39.5245V22H39.1615V14.069ZM46.3926 22.22C45.6226 22.22 44.9076 22.0183 44.2476 21.615C43.5876 21.2117 43.0633 20.6763 42.6746 20.009C42.2933 19.3343 42.1026 18.612 42.1026 17.842C42.1026 17.0793 42.2969 16.368 42.6856 15.708C43.0743 15.0407 43.5986 14.5127 44.2586 14.124C44.9186 13.728 45.6336 13.53 46.4036 13.53C47.1809 13.53 47.8959 13.7243 48.5486 14.113C49.2013 14.5017 49.7183 15.0297 50.0996 15.697C50.4883 16.357 50.6826 17.072 50.6826 17.842C50.6826 18.634 50.4883 19.3673 50.0996 20.042C49.7183 20.7093 49.1976 21.241 48.5376 21.637C47.8849 22.0257 47.1699 22.22 46.3926 22.22ZM46.3926 21.901C47.0966 21.901 47.7493 21.7213 48.3506 21.362C48.9519 20.9953 49.4286 20.504 49.7806 19.888C50.1399 19.2647 50.3196 18.59 50.3196 17.864C50.3196 17.1453 50.1436 16.478 49.7916 15.862C49.4396 15.246 48.9629 14.7583 48.3616 14.399C47.7603 14.0323 47.1076 13.849 46.4036 13.849C45.6923 13.849 45.0359 14.0323 44.4346 14.399C43.8333 14.7583 43.3529 15.246 42.9936 15.862C42.6416 16.478 42.4656 17.1453 42.4656 17.864C42.4656 18.59 42.6416 19.2647 42.9936 19.888C43.3529 20.504 43.8333 20.9953 44.4346 21.362C45.0359 21.7213 45.6886 21.901 46.3926 21.901ZM58.5888 22.143L56.8508 18.106L55.0908 22.143L51.4718 13.75H51.8568L55.1018 21.252L56.6638 17.666L54.9698 13.75H55.3438L56.8838 17.303L58.4348 13.75H58.7758L57.0598 17.71L58.6108 21.285L61.8668 13.75H62.2518L58.5888 22.143ZM70.0028 22H69.6178L68.0558 18.854H63.6778L62.1488 22H61.7638L65.8778 13.552L70.0028 22ZM67.9238 18.535L65.8558 14.344L63.8318 18.535H67.9238ZM72.153 14.575V22H71.834V13.629L77.906 21.164V13.75H78.225V22.121L72.153 14.575ZM80.6259 13.75H80.9889V22H80.6259V13.75ZM83.3888 13.75H86.3478V14.069H83.7518V18.557H85.9188V18.876H83.7518V21.681H86.3478V22H83.3888V13.75ZM97.378 22.143L95.64 18.106L93.88 22.143L90.261 13.75H90.646L93.891 21.252L95.453 17.666L93.759 13.75H94.133L95.673 17.303L97.224 13.75H97.565L95.849 17.71L97.4 21.285L100.656 13.75H101.041L97.378 22.143ZM102.839 14.575V22H102.52V13.629L108.592 21.164V13.75H108.911V22.121L102.839 14.575ZM111.257 13.75H114.216V14.069H111.62V18.557H113.787V18.876H111.62V21.681H114.216V22H111.257V13.75ZM113.721 24.2C113.479 24.2 113.285 24.1377 113.138 24.013C112.991 23.8957 112.918 23.7453 112.918 23.562C112.918 23.4007 112.977 23.2393 113.094 23.078L113.864 22H114.216L113.369 23.199C113.281 23.3237 113.237 23.4373 113.237 23.54C113.237 23.65 113.281 23.738 113.369 23.804C113.464 23.8773 113.589 23.914 113.743 23.914H114.216V24.2H113.721ZM117.241 14.069H115.338V13.75H119.485V14.069H117.604V22H117.241V14.069ZM121.19 13.75H121.663C122.521 13.75 123.181 13.9773 123.643 14.432C124.112 14.8867 124.347 15.5357 124.347 16.379C124.347 16.863 124.229 17.3067 123.995 17.71C123.767 18.1133 123.456 18.4323 123.06 18.667C122.664 18.8943 122.227 19.008 121.751 19.008H121.674L124.512 22H124.039L121.542 19.382V22H121.19V13.75ZM121.74 18.689C122.158 18.689 122.539 18.5863 122.884 18.381C123.228 18.1757 123.5 17.9007 123.698 17.556C123.896 17.204 123.995 16.8153 123.995 16.39C123.995 15.6493 123.793 15.0773 123.39 14.674C122.994 14.2707 122.425 14.069 121.685 14.069H121.542V18.689H121.74ZM129.386 14.069H125.756V13.75H129.936L126.295 21.681H129.903V22H125.756L129.386 14.069Z" fill="black"/>
<line x1="130" y1="11.125" y2="11.125" stroke="black" stroke-width="0.25"/>
</svg>
